# xmcd CD database file
#
# Track frame offsets:
#	182
#	19645
#	33317
#	69455
#	76322
#	93332
#	103837
#	120290
#	143725
#	160535
#	185535
#	200745
#	213522
#	233045
#	243197
#
# Disc length: 3417 seconds
#
# Revision: 0
# Processed by: cddbd v1.5.2PL0 Copyright (c) Steve Scherf et al.
# Submitted via: CDex 1.70beta2
#
DISCID=bd0d570f
DTITLE=The Blues Casters - Drivin' With...
DYEAR=1994
DGENRE=Blues
TTITLE0=Looking For True Love
TTITLE1=Pretty Girl
TTITLE2=That's Allright
TTITLE3=Zipper
TTITLE4=Late In The Evening
TTITLE5=Ya-Ya-Ya
TTITLE6=Bar Rooms Blue
TTITLE7=Tai-Fun
TTITLE8=Long Distance Love
TTITLE9=Cold Weather Blues
TTITLE10=I Need Money
TTITLE11=Just Keep Lovin' Her
TTITLE12=Don't Say That No More
TTITLE13=Big Ed's Rock
TTITLE14=Drivin'
EXTD=YEAR: 1994
EXTT0=
EXTT1=
EXTT2=
EXTT3=
EXTT4=
EXTT5=
EXTT6=
EXTT7=
EXTT8=
EXTT9=
EXTT10=
EXTT11=
EXTT12=
EXTT13=
EXTT14=
PLAYORDER=
